M48
; DRILL file {KiCad 9.0.6} date 2025-12-26T21:21:03+1100
; FORMAT={-:-/ absolute / metric / decimal}
; #@! TF.CreationDate,2025-12-26T21:21:03+11:00
; #@! TF.GenerationSoftware,Kicad,Pcbnew,9.0.6
; #@! TF.FileFunction,Plated,1,4,PTH
FMAT,2
METRIC
; #@! TA.AperFunction,Plated,PTH,ViaDrill
T1C0.200
; #@! TA.AperFunction,Plated,PTH,ViaDrill
T2C0.300
; #@! TA.AperFunction,Plated,PTH,ComponentDrill
T3C0.600
; #@! TA.AperFunction,Plated,PTH,ComponentDrill
T4C0.900
; #@! TA.AperFunction,Plated,PTH,ComponentDrill
T5C1.000
; #@! TA.AperFunction,Plated,PTH,ComponentDrill
T6C1.000
; #@! TA.AperFunction,Plated,PTH,ComponentDrill
T7C1.100
%
G90
G05
T1
X138.5Y-126.8
X141.27Y-98.06
X142.3Y-71.63
X143.81Y-97.86
X144.531Y-91.529
X146.36Y-98.29
X146.885Y-95.63
X147.944Y-96.426
X153.196Y-100.194
X153.73Y-125.69
X153.774Y-98.874
X154.85Y-71.63
X161.8Y-88.64
X163.81Y-79.274
X164.91Y-106.08
X165.43Y-72.16
X166.36Y-79.274
X166.53Y-72.16
X167.791Y-72.685
X167.91Y-69.54
X167.92Y-127.09
X170.301Y-74.805
X170.46Y-69.39
X172.99Y-127.06
X173.644Y-69.576
X174.474Y-70.406
X175.53Y-69.57
X176.01Y-76.3
X180.61Y-69.21
X183.14Y-105.555
X185.387Y-67.373
X191.39Y-86.58
X201.93Y-73.755
X204.07Y-76.9
X205.325Y-76.525
X206.94Y-90.96
X207.859Y-93.479
X208.291Y-78.749
X209.708Y-92.198
X210.998Y-78.022
X212.881Y-86.591
X214.62Y-87.989
X215.253Y-82.277
X215.901Y-87.989
X216.376Y-90.073
X216.43Y-86.14
X216.901Y-87.358
X216.901Y-90.5
X217.54Y-85.13
X217.76Y-73.735
X217.905Y-80.825
X218.217Y-85.808
X218.473Y-84.605
X219.635Y-79.091
X219.939Y-73.34
X219.939Y-73.99
X219.98Y-72.1
X220.184Y-84.054
X220.187Y-79.643
X220.712Y-83.069
X221.238Y-83.62
X221.515Y-78.906
X221.551Y-75.261
X222.11Y-72.29
X222.153Y-78.781
X222.17Y-68.905
X222.259Y-69.558
X222.47Y-91.96
X223.031Y-70.719
X223.266Y-68.504
X223.558Y-70.338
X223.791Y-69.029
X224.075Y-77.855
X224.075Y-79.01
X224.09Y-79.8
X224.395Y-68.781
X224.77Y-70.338
X225.2Y-69.23
X225.449Y-72.29
X225.57Y-79.935
X225.684Y-71.544
X225.826Y-70.91
X225.93Y-75.894
X226.825Y-71.435
X227.19Y-72.03
X227.343Y-70.91
X228.039Y-69.238
X228.785Y-68.781
X228.886Y-66.255
X228.961Y-76.13
X229.106Y-70.234
X229.38Y-85.283
X229.57Y-76.404
X229.701Y-66.725
X229.987Y-72.597
X230.14Y-78.25
X230.14Y-82.755
X230.19Y-76.14
X230.88Y-82.755
X232.8Y-72.42
X232.885Y-76.41
X233.76Y-82.755
X234.15Y-68.0
X234.15Y-71.6
X234.225Y-64.205
X234.796Y-63.895
X235.05Y-68.0
X235.446Y-63.895
X235.662Y-64.516
X235.875Y-65.13
X235.914Y-74.078
X236.01Y-77.855
X236.02Y-76.8
X236.6Y-74.078
X236.72Y-76.805
X237.65Y-73.504
X238.32Y-73.504
X238.548Y-68.137
X238.907Y-72.203
X239.191Y-68.236
X239.21Y-73.4
X239.532Y-72.021
X239.64Y-70.763
X239.64Y-69.297
X239.833Y-68.496
X239.835Y-73.193
X239.861Y-69.918
X239.975Y-71.546
X240.173Y-72.638
X240.206Y-77.436
X240.3Y-64.962
X240.564Y-68.484
X240.59Y-127.53
X240.679Y-76.321
X240.71Y-74.86
X240.784Y-66.988
X240.787Y-65.501
X240.787Y-66.243
X241.21Y-76.99
X241.225Y-73.103
X241.24Y-75.38
X242.07Y-75.35
X242.71Y-81.59
X244.631Y-72.164
X245.03Y-74.62
X245.7Y-73.88
X246.3Y-83.59
X246.864Y-77.64
X247.7Y-88.14
X248.39Y-88.596
T2
X129.56Y-69.14
X129.64Y-77.96
X129.64Y-87.46
X130.13Y-120.69
X130.17Y-104.46
X130.24Y-112.14
X130.39Y-130.08
X133.65Y-102.45
X133.9Y-86.5
X134.35Y-93.355
X145.79Y-63.85
X150.39Y-130.05
X152.75Y-122.88
X157.24Y-63.7
X163.62Y-130.13
X173.28Y-130.16
X184.5Y-130.12
X186.21Y-63.4
X197.08Y-130.2
X197.75Y-63.4
X208.41Y-130.38
X213.3Y-83.41
X217.965Y-67.13
X217.965Y-67.979
X217.965Y-68.827
X217.965Y-69.676
X217.965Y-70.476
X219.83Y-68.98
X221.04Y-63.26
X221.04Y-64.35
X221.05Y-65.29
X221.64Y-130.38
X221.812Y-66.052
X227.44Y-63.6
X229.65Y-73.82
X230.502Y-73.847
X231.73Y-63.64
X231.73Y-64.44
X232.93Y-63.639
X234.22Y-130.5
X237.847Y-75.899
X237.894Y-63.975
X240.73Y-63.602
X245.474Y-72.424
X246.04Y-73.027
X246.66Y-82.28
X249.65Y-130.17
T4
X160.295Y-63.83
X162.835Y-63.83
X165.375Y-63.83
X167.915Y-63.83
X170.455Y-63.83
X172.995Y-63.83
X175.535Y-63.83
X178.075Y-63.83
X180.615Y-63.83
X200.935Y-63.83
X203.475Y-63.83
X206.015Y-63.83
X208.555Y-63.83
X211.095Y-63.83
X213.635Y-63.83
X216.175Y-63.83
X218.715Y-63.83
T5
X223.55Y-82.05
X227.55Y-82.05
T6
X129.6Y-91.53
X129.6Y-94.07
X129.6Y-96.61
X129.6Y-99.15
X129.6Y-101.69
X133.65Y-104.7
X135.24Y-64.23
X135.97Y-129.2
X136.19Y-104.7
X136.22Y-86.5
X136.22Y-89.04
X137.78Y-64.23
X138.51Y-129.2
X138.73Y-104.7
X138.76Y-86.5
X138.76Y-89.04
X140.32Y-64.23
X141.05Y-129.2
X141.27Y-104.7
X141.3Y-86.5
X141.3Y-89.04
X143.81Y-104.7
X143.84Y-86.5
X143.84Y-89.04
X146.35Y-104.7
X151.11Y-76.905
X151.66Y-63.8
X152.76Y-128.2
X153.65Y-76.905
X154.2Y-63.8
X155.3Y-128.2
X156.19Y-76.905
X158.73Y-76.905
X160.28Y-125.155
X161.27Y-76.905
X162.82Y-125.155
X163.81Y-76.905
X165.36Y-125.155
X166.35Y-76.905
X167.9Y-125.155
X168.89Y-76.905
X170.44Y-125.155
X171.43Y-76.905
X172.98Y-125.155
X173.815Y-80.6
X173.97Y-76.905
X175.52Y-125.155
X176.355Y-80.6
X178.04Y-76.905
X178.06Y-125.155
X178.895Y-80.6
X180.58Y-76.905
X181.435Y-80.6
X183.12Y-76.905
X183.12Y-125.165
X183.155Y-63.83
X183.975Y-80.6
X185.66Y-76.905
X185.66Y-125.165
X186.515Y-80.6
X188.2Y-76.905
X188.2Y-125.165
X189.055Y-80.6
X190.74Y-76.905
X190.74Y-125.165
X191.595Y-80.6
X193.28Y-76.905
X193.28Y-125.165
X194.135Y-80.6
X195.82Y-76.905
X195.82Y-125.165
X196.675Y-80.6
X199.215Y-80.6
X201.755Y-80.6
X202.7Y-90.95
X202.7Y-93.49
X202.7Y-96.03
X202.7Y-98.57
X202.7Y-101.11
X202.71Y-122.225
X202.71Y-124.765
X204.295Y-80.6
X218.93Y-90.93
X218.93Y-93.47
X218.93Y-96.01
X233.59Y-127.53
X236.13Y-127.53
X238.67Y-127.53
T7
X224.25Y-99.75
X224.25Y-104.25
X224.25Y-115.8
X224.25Y-122.3
X228.75Y-115.8
X228.75Y-122.3
X230.75Y-99.75
X230.75Y-104.25
X232.85Y-91.25
X232.85Y-95.75
X232.85Y-108.25
X232.85Y-112.75
X233.75Y-98.75
X233.75Y-105.25
X238.25Y-98.75
X238.25Y-105.25
X239.35Y-91.25
X239.35Y-95.75
X239.35Y-108.25
X239.35Y-112.75
X241.25Y-99.75
X241.25Y-104.25
X243.35Y-115.75
X243.35Y-122.25
X247.75Y-99.75
X247.75Y-104.25
X247.85Y-115.75
X247.85Y-122.25
T3
G00X242.33Y-65.43
M15
G01X242.33Y-64.83
M16
G05
G00X242.33Y-69.86
M15
G01X242.33Y-68.76
M16
G05
G00X250.97Y-65.43
M15
G01X250.97Y-64.83
M16
G05
G00X250.97Y-69.86
M15
G01X250.97Y-68.76
M16
G05
M30
