%TF.GenerationSoftware,KiCad,Pcbnew,9.0.6*%
%TF.CreationDate,2025-12-26T21:20:51+11:00*%
%TF.ProjectId,Fipper Zero,46697070-6572-4205-9a65-726f2e6b6963,rev?*%
%TF.SameCoordinates,Original*%
%TF.FileFunction,Legend,Bot*%
%TF.FilePolarity,Positive*%
%FSLAX46Y46*%
G04 Gerber Fmt 4.6, Leading zero omitted, Abs format (unit mm)*
G04 Created by KiCad (PCBNEW 9.0.6) date 2025-12-26 21:20:51*
%MOMM*%
%LPD*%
G01*
G04 APERTURE LIST*
%ADD10C,0.100000*%
%ADD11C,0.120000*%
G04 APERTURE END LIST*
D10*
X127620000Y-62560000D02*
X148630000Y-62560000D01*
X148630000Y-87760000D01*
X127620000Y-87760000D01*
X127620000Y-62560000D01*
X222560000Y-96920000D02*
X249510000Y-96920000D01*
X249510000Y-129140000D01*
X222560000Y-129140000D01*
X222560000Y-96920000D01*
X149360000Y-75105000D02*
X197630000Y-75105000D01*
X197630000Y-126975000D01*
X149360000Y-126975000D01*
X149360000Y-75105000D01*
X201130000Y-88320000D02*
X220430000Y-88320000D01*
X220430000Y-126820000D01*
X201130000Y-126820000D01*
X201130000Y-88320000D01*
X127680000Y-106570000D02*
X148690000Y-106570000D01*
X148690000Y-130850000D01*
X127680000Y-130850000D01*
X127680000Y-106570000D01*
D11*
%TO.C,IR1*%
X134590000Y-127820000D02*
X134590000Y-129200000D01*
X135970000Y-127820000D02*
X134590000Y-127820000D01*
X137240000Y-127820000D02*
X137240000Y-130580000D01*
X137240000Y-127820000D02*
X142430000Y-127820000D01*
X137240000Y-130580000D02*
X142430000Y-130580000D01*
X142430000Y-127820000D02*
X142430000Y-130580000D01*
%TO.C,J12*%
X217550000Y-92200000D02*
X217550000Y-97390000D01*
X220310000Y-89550000D02*
X218930000Y-89550000D01*
X220310000Y-90930000D02*
X220310000Y-89550000D01*
X220310000Y-92200000D02*
X217550000Y-92200000D01*
X220310000Y-92200000D02*
X220310000Y-97390000D01*
X220310000Y-97390000D02*
X217550000Y-97390000D01*
%TO.C,J10*%
X128220000Y-90150000D02*
X130980000Y-90150000D01*
X128220000Y-100420000D02*
X128220000Y-90150000D01*
X128220000Y-100420000D02*
X130980000Y-100420000D01*
X128220000Y-101690000D02*
X128220000Y-103070000D01*
X128220000Y-103070000D02*
X129600000Y-103070000D01*
X130980000Y-100420000D02*
X130980000Y-90150000D01*
%TO.C,J11*%
X201330000Y-123495000D02*
X201330000Y-126145000D01*
X204090000Y-120845000D02*
X202710000Y-120845000D01*
X204090000Y-122225000D02*
X204090000Y-120845000D01*
X204090000Y-123495000D02*
X201330000Y-123495000D01*
X204090000Y-123495000D02*
X204090000Y-126145000D01*
X204090000Y-126145000D02*
X201330000Y-126145000D01*
%TO.C,IR2*%
X133860000Y-65610000D02*
X133860000Y-62850000D01*
X139050000Y-62850000D02*
X133860000Y-62850000D01*
X139050000Y-65610000D02*
X133860000Y-65610000D01*
X139050000Y-65610000D02*
X139050000Y-62850000D01*
X140320000Y-65610000D02*
X141700000Y-65610000D01*
X141700000Y-65610000D02*
X141700000Y-64230000D01*
%TO.C,J4*%
X181740000Y-123785000D02*
X181740000Y-125165000D01*
X183120000Y-123785000D02*
X181740000Y-123785000D01*
X184390000Y-123785000D02*
X184390000Y-126545000D01*
X184390000Y-123785000D02*
X197200000Y-123785000D01*
X184390000Y-126545000D02*
X197200000Y-126545000D01*
X197200000Y-123785000D02*
X197200000Y-126545000D01*
%TO.C,J13*%
X201320000Y-92220000D02*
X201320000Y-102490000D01*
X204080000Y-89570000D02*
X202700000Y-89570000D01*
X204080000Y-90950000D02*
X204080000Y-89570000D01*
X204080000Y-92220000D02*
X201320000Y-92220000D01*
X204080000Y-92220000D02*
X204080000Y-102490000D01*
X204080000Y-102490000D02*
X201320000Y-102490000D01*
%TO.C,J2*%
X158900000Y-123775000D02*
X158900000Y-125155000D01*
X160280000Y-123775000D02*
X158900000Y-123775000D01*
X161550000Y-123775000D02*
X161550000Y-126535000D01*
X161550000Y-123775000D02*
X179440000Y-123775000D01*
X161550000Y-126535000D02*
X179440000Y-126535000D01*
X179440000Y-123775000D02*
X179440000Y-126535000D01*
%TO.C,J3*%
X176660000Y-78285000D02*
X176660000Y-75525000D01*
X194550000Y-75525000D02*
X176660000Y-75525000D01*
X194550000Y-78285000D02*
X176660000Y-78285000D01*
X194550000Y-78285000D02*
X194550000Y-75525000D01*
X195820000Y-78285000D02*
X197200000Y-78285000D01*
X197200000Y-78285000D02*
X197200000Y-76905000D01*
%TO.C,J9*%
X232210000Y-126150000D02*
X232210000Y-127530000D01*
X233590000Y-126150000D02*
X232210000Y-126150000D01*
X234860000Y-126150000D02*
X234860000Y-128910000D01*
X234860000Y-126150000D02*
X240050000Y-126150000D01*
X234860000Y-128910000D02*
X240050000Y-128910000D01*
X240050000Y-126150000D02*
X240050000Y-128910000D01*
%TO.C,J1*%
X149730000Y-78285000D02*
X149730000Y-75525000D01*
X172700000Y-75525000D02*
X149730000Y-75525000D01*
X172700000Y-78285000D02*
X149730000Y-78285000D01*
X172700000Y-78285000D02*
X172700000Y-75525000D01*
X173970000Y-78285000D02*
X175350000Y-78285000D01*
X175350000Y-78285000D02*
X175350000Y-76905000D01*
%TD*%
M02*
