%TF.GenerationSoftware,KiCad,Pcbnew,9.0.6*%
%TF.CreationDate,2025-12-26T21:20:51+11:00*%
%TF.ProjectId,Fipper Zero,46697070-6572-4205-9a65-726f2e6b6963,rev?*%
%TF.SameCoordinates,Original*%
%TF.FileFunction,Soldermask,Top*%
%TF.FilePolarity,Negative*%
%FSLAX46Y46*%
G04 Gerber Fmt 4.6, Leading zero omitted, Abs format (unit mm)*
G04 Created by KiCad (PCBNEW 9.0.6) date 2025-12-26 21:20:51*
%MOMM*%
%LPD*%
G01*
G04 APERTURE LIST*
G04 Aperture macros list*
%AMRoundRect*
0 Rectangle with rounded corners*
0 $1 Rounding radius*
0 $2 $3 $4 $5 $6 $7 $8 $9 X,Y pos of 4 corners*
0 Add a 4 corners polygon primitive as box body*
4,1,4,$2,$3,$4,$5,$6,$7,$8,$9,$2,$3,0*
0 Add four circle primitives for the rounded corners*
1,1,$1+$1,$2,$3*
1,1,$1+$1,$4,$5*
1,1,$1+$1,$6,$7*
1,1,$1+$1,$8,$9*
0 Add four rect primitives between the rounded corners*
20,1,$1+$1,$2,$3,$4,$5,0*
20,1,$1+$1,$4,$5,$6,$7,0*
20,1,$1+$1,$6,$7,$8,$9,0*
20,1,$1+$1,$8,$9,$2,$3,0*%
G04 Aperture macros list end*
%ADD10R,1.700000X1.700000*%
%ADD11C,1.700000*%
%ADD12RoundRect,0.200000X0.275000X-0.200000X0.275000X0.200000X-0.275000X0.200000X-0.275000X-0.200000X0*%
%ADD13RoundRect,0.200000X-0.275000X0.200000X-0.275000X-0.200000X0.275000X-0.200000X0.275000X0.200000X0*%
%ADD14RoundRect,0.225000X-0.225000X-0.250000X0.225000X-0.250000X0.225000X0.250000X-0.225000X0.250000X0*%
%ADD15RoundRect,0.225000X0.225000X0.250000X-0.225000X0.250000X-0.225000X-0.250000X0.225000X-0.250000X0*%
%ADD16RoundRect,0.225000X0.250000X-0.225000X0.250000X0.225000X-0.250000X0.225000X-0.250000X-0.225000X0*%
%ADD17RoundRect,0.135000X0.135000X0.185000X-0.135000X0.185000X-0.135000X-0.185000X0.135000X-0.185000X0*%
%ADD18C,2.000000*%
%ADD19RoundRect,0.200000X0.200000X0.275000X-0.200000X0.275000X-0.200000X-0.275000X0.200000X-0.275000X0*%
%ADD20RoundRect,0.150000X-0.150000X0.512500X-0.150000X-0.512500X0.150000X-0.512500X0.150000X0.512500X0*%
%ADD21RoundRect,0.250000X0.475000X-0.250000X0.475000X0.250000X-0.475000X0.250000X-0.475000X-0.250000X0*%
%ADD22RoundRect,0.250000X0.250000X-0.275000X0.250000X0.275000X-0.250000X0.275000X-0.250000X-0.275000X0*%
%ADD23RoundRect,0.250000X0.275000X-0.850000X0.275000X0.850000X-0.275000X0.850000X-0.275000X-0.850000X0*%
%ADD24O,1.700000X1.700000*%
%ADD25RoundRect,0.250000X0.250000X0.475000X-0.250000X0.475000X-0.250000X-0.475000X0.250000X-0.475000X0*%
%ADD26RoundRect,0.250000X-0.475000X0.250000X-0.475000X-0.250000X0.475000X-0.250000X0.475000X0.250000X0*%
%ADD27C,0.650000*%
%ADD28R,0.600000X1.450000*%
%ADD29R,0.300000X1.450000*%
%ADD30O,1.000000X2.100000*%
%ADD31O,1.000000X1.600000*%
%ADD32RoundRect,0.225000X0.375000X-0.225000X0.375000X0.225000X-0.375000X0.225000X-0.375000X-0.225000X0*%
%ADD33RoundRect,0.225000X-0.250000X0.225000X-0.250000X-0.225000X0.250000X-0.225000X0.250000X0.225000X0*%
%ADD34RoundRect,0.200000X-0.200000X-0.275000X0.200000X-0.275000X0.200000X0.275000X-0.200000X0.275000X0*%
%ADD35R,0.300000X0.300000*%
%ADD36R,0.350000X0.250000*%
%ADD37R,0.250000X0.350000*%
%ADD38R,0.600000X0.600000*%
%ADD39R,0.430000X0.430000*%
%ADD40C,1.800000*%
G04 APERTURE END LIST*
%TO.C,J16*%
G36*
X223085000Y-65040000D02*
G01*
X224965000Y-65040000D01*
X224965000Y-62950000D01*
X223085000Y-62950000D01*
X223085000Y-65040000D01*
G37*
%TD*%
D10*
%TO.C,J7*%
X146350000Y-104700000D03*
D11*
X143810000Y-104700000D03*
X141270000Y-104700000D03*
X138730000Y-104700000D03*
X136190000Y-104700000D03*
X133650000Y-104700000D03*
%TD*%
D12*
%TO.C,R17*%
X138730000Y-101045000D03*
X138730000Y-99395000D03*
%TD*%
D13*
%TO.C,RX1*%
X231170000Y-76615000D03*
X231170000Y-78265000D03*
%TD*%
D14*
%TO.C,C4*%
X229650000Y-75130000D03*
X231200000Y-75130000D03*
%TD*%
D15*
%TO.C,C2*%
X227425000Y-70010000D03*
X225875000Y-70010000D03*
%TD*%
D16*
%TO.C,C5*%
X240540000Y-70750000D03*
X240540000Y-69200000D03*
%TD*%
D15*
%TO.C,C7*%
X227425000Y-66900000D03*
X225875000Y-66900000D03*
%TD*%
D17*
%TO.C,R23*%
X228280000Y-65120000D03*
X227260000Y-65120000D03*
%TD*%
D13*
%TO.C,R7*%
X170460000Y-66520000D03*
X170460000Y-68170000D03*
%TD*%
D18*
%TO.C,SW4*%
X241250000Y-99750000D03*
X247750000Y-99750000D03*
X241250000Y-104250000D03*
X247750000Y-104250000D03*
%TD*%
D19*
%TO.C,R22*%
X226300000Y-72290000D03*
X224650000Y-72290000D03*
%TD*%
D18*
%TO.C,SW5*%
X232850000Y-108250000D03*
X239350000Y-108250000D03*
X232850000Y-112750000D03*
X239350000Y-112750000D03*
%TD*%
D10*
%TO.C,J5*%
X136220000Y-89040000D03*
D11*
X136220000Y-86500000D03*
X138760000Y-89040000D03*
X138760000Y-86500000D03*
X141300000Y-89040000D03*
X141300000Y-86500000D03*
X143840000Y-89040000D03*
X143840000Y-86500000D03*
%TD*%
D12*
%TO.C,R12*%
X206020000Y-68175000D03*
X206020000Y-66525000D03*
%TD*%
D18*
%TO.C,SW1*%
X243350000Y-122250000D03*
X243350000Y-115750000D03*
X247850000Y-122250000D03*
X247850000Y-115750000D03*
%TD*%
D20*
%TO.C,UP2*%
X240600000Y-78575000D03*
X239650000Y-78575000D03*
X238700000Y-78575000D03*
X238700000Y-80850000D03*
X240600000Y-80850000D03*
%TD*%
%TO.C,UP1*%
X249100000Y-78755000D03*
X248150000Y-78755000D03*
X247200000Y-78755000D03*
X247200000Y-81030000D03*
X249100000Y-81030000D03*
%TD*%
D21*
%TO.C,CP3*%
X242725000Y-80650000D03*
X242725000Y-78750000D03*
%TD*%
D18*
%TO.C,SW3*%
X224250000Y-99750000D03*
X230750000Y-99750000D03*
X224250000Y-104250000D03*
X230750000Y-104250000D03*
%TD*%
D22*
%TO.C,J16*%
X224025000Y-65575000D03*
D23*
X222550000Y-64050000D03*
X225500000Y-64050000D03*
%TD*%
D10*
%TO.C,J8*%
X152760000Y-128200000D03*
D11*
X155300000Y-128200000D03*
%TD*%
D13*
%TO.C,R18*%
X152750000Y-124015000D03*
X152750000Y-125665000D03*
%TD*%
D18*
%TO.C,SW7*%
X233750000Y-105250000D03*
X233750000Y-98750000D03*
X238250000Y-105250000D03*
X238250000Y-98750000D03*
%TD*%
D13*
%TO.C,R4*%
X180610000Y-66520000D03*
X180610000Y-68170000D03*
%TD*%
D10*
%TO.C,J15*%
X218715000Y-63830000D03*
D24*
X216175000Y-63830000D03*
X213635000Y-63830000D03*
X211095000Y-63830000D03*
X208555000Y-63830000D03*
X206015000Y-63830000D03*
X203475000Y-63830000D03*
X200935000Y-63830000D03*
D11*
X183155000Y-63830000D03*
D24*
X180615000Y-63830000D03*
X178075000Y-63830000D03*
X175535000Y-63830000D03*
X172995000Y-63830000D03*
X170455000Y-63830000D03*
X167915000Y-63830000D03*
X165375000Y-63830000D03*
X162835000Y-63830000D03*
X160295000Y-63830000D03*
%TD*%
D15*
%TO.C,C6*%
X227425000Y-68450000D03*
X225875000Y-68450000D03*
%TD*%
D13*
%TO.C,RU2*%
X242075000Y-72470000D03*
X242075000Y-74120000D03*
%TD*%
%TO.C,R5*%
X162850000Y-66515000D03*
X162850000Y-68165000D03*
%TD*%
D25*
%TO.C,C8*%
X223040000Y-72290000D03*
X221140000Y-72290000D03*
%TD*%
D13*
%TO.C,R19*%
X223550000Y-74945000D03*
X223550000Y-76595000D03*
%TD*%
D12*
%TO.C,RU1*%
X243675000Y-74125000D03*
X243675000Y-72475000D03*
%TD*%
D26*
%TO.C,CP1*%
X245030000Y-78750000D03*
X245030000Y-80650000D03*
%TD*%
D13*
%TO.C,R6*%
X172980000Y-66520000D03*
X172980000Y-68170000D03*
%TD*%
D12*
%TO.C,R10*%
X216180000Y-68175000D03*
X216180000Y-66525000D03*
%TD*%
D10*
%TO.C,J6*%
X151660000Y-63800000D03*
D11*
X154200000Y-63800000D03*
%TD*%
D12*
%TO.C,R9*%
X213630000Y-68185000D03*
X213630000Y-66535000D03*
%TD*%
%TO.C,R8*%
X211090000Y-68185000D03*
X211090000Y-66535000D03*
%TD*%
%TO.C,R2*%
X165370000Y-68175000D03*
X165370000Y-66525000D03*
%TD*%
%TO.C,R14*%
X146360000Y-101050000D03*
X146360000Y-99400000D03*
%TD*%
D13*
%TO.C,R3*%
X175530000Y-66525000D03*
X175530000Y-68175000D03*
%TD*%
D12*
%TO.C,RX2*%
X239400000Y-65015000D03*
X239400000Y-63365000D03*
%TD*%
%TO.C,R13*%
X167900000Y-68175000D03*
X167900000Y-66525000D03*
%TD*%
D27*
%TO.C,USB1*%
X249540000Y-68780000D03*
X243760000Y-68780000D03*
D28*
X249900000Y-70225000D03*
X249100000Y-70225000D03*
D29*
X247900000Y-70225000D03*
X246900000Y-70225000D03*
X246400000Y-70225000D03*
X245400000Y-70225000D03*
D28*
X244200000Y-70225000D03*
X243400000Y-70225000D03*
X243400000Y-70225000D03*
X244200000Y-70225000D03*
D29*
X244900000Y-70225000D03*
X245900000Y-70225000D03*
X247400000Y-70225000D03*
X248400000Y-70225000D03*
D28*
X249100000Y-70225000D03*
X249900000Y-70225000D03*
D30*
X250970000Y-69310000D03*
D31*
X250970000Y-65130000D03*
D30*
X242330000Y-69310000D03*
D31*
X242330000Y-65130000D03*
%TD*%
D32*
%TO.C,D1*%
X249100000Y-76305000D03*
X249100000Y-73005000D03*
%TD*%
D12*
%TO.C,R16*%
X141270000Y-101040000D03*
X141270000Y-99390000D03*
%TD*%
%TO.C,R21*%
X138770000Y-93355000D03*
X138770000Y-91705000D03*
%TD*%
%TO.C,R15*%
X143810000Y-101040000D03*
X143810000Y-99390000D03*
%TD*%
D33*
%TO.C,C3*%
X228100000Y-75105000D03*
X228100000Y-76655000D03*
%TD*%
D15*
%TO.C,C1*%
X221370000Y-69800000D03*
X219820000Y-69800000D03*
%TD*%
D18*
%TO.C,SW6*%
X224250000Y-122300000D03*
X224250000Y-115800000D03*
X228750000Y-122300000D03*
X228750000Y-115800000D03*
%TD*%
D34*
%TO.C,RP1*%
X237875000Y-76625000D03*
X239525000Y-76625000D03*
%TD*%
D10*
%TO.C,J14*%
X173815000Y-80600000D03*
D11*
X176355000Y-80600000D03*
X178895000Y-80600000D03*
X181435000Y-80600000D03*
X183975000Y-80600000D03*
X186515000Y-80600000D03*
X189055000Y-80600000D03*
X191595000Y-80600000D03*
X194135000Y-80600000D03*
X196675000Y-80600000D03*
X199215000Y-80600000D03*
X201755000Y-80600000D03*
X204295000Y-80600000D03*
%TD*%
D19*
%TO.C,R20*%
X223275000Y-90930000D03*
X221625000Y-90930000D03*
%TD*%
D35*
%TO.C,U1*%
X230520000Y-65730000D03*
D36*
X230520000Y-66200000D03*
X230520000Y-66650000D03*
X230520000Y-67100000D03*
X230520000Y-67550000D03*
X230520000Y-68000000D03*
X230520000Y-68450000D03*
X230520000Y-68900000D03*
X230520000Y-69350000D03*
X230520000Y-69800000D03*
X230520000Y-70250000D03*
X230520000Y-70700000D03*
X230520000Y-71150000D03*
X230520000Y-71600000D03*
X230520000Y-72050000D03*
X230520000Y-72500000D03*
D35*
X230520000Y-72980000D03*
D37*
X231000000Y-72980000D03*
X231450000Y-72980000D03*
X231900000Y-72980000D03*
X232350000Y-72980000D03*
X232800000Y-72980000D03*
X233250000Y-72980000D03*
X233700000Y-72980000D03*
X234150000Y-72980000D03*
X234600000Y-72980000D03*
X235050000Y-72980000D03*
X235500000Y-72980000D03*
X235950000Y-72980000D03*
X236400000Y-72980000D03*
D35*
X236870000Y-72980000D03*
D36*
X236870000Y-72500000D03*
X236870000Y-72050000D03*
X236870000Y-71600000D03*
X236870000Y-71150000D03*
X236870000Y-70700000D03*
X236870000Y-70250000D03*
X236870000Y-69800000D03*
X236870000Y-69350000D03*
X236870000Y-68900000D03*
X236870000Y-68450000D03*
X236870000Y-68000000D03*
X236870000Y-67550000D03*
X236870000Y-67100000D03*
X236870000Y-66650000D03*
X236870000Y-66200000D03*
D35*
X236870000Y-65730000D03*
D37*
X236400000Y-65730000D03*
X235950000Y-65730000D03*
X235500000Y-65730000D03*
X235050000Y-65730000D03*
X234600000Y-65730000D03*
X234150000Y-65730000D03*
X233700000Y-65730000D03*
X233250000Y-65730000D03*
X232800000Y-65730000D03*
X232350000Y-65730000D03*
X231900000Y-65730000D03*
X231450000Y-65730000D03*
X231000000Y-65730000D03*
D38*
X232350000Y-67100000D03*
X232350000Y-68000000D03*
X232350000Y-68900000D03*
X232350000Y-69800000D03*
X232350000Y-70700000D03*
X232350000Y-71600000D03*
X233250000Y-71600000D03*
X234150000Y-71600000D03*
X235050000Y-71600000D03*
X235050000Y-70700000D03*
X235050000Y-69800000D03*
X235050000Y-68900000D03*
X235050000Y-68000000D03*
X235050000Y-67100000D03*
X234150000Y-67100000D03*
X233250000Y-67100000D03*
X233250000Y-68000000D03*
X233250000Y-68900000D03*
X233250000Y-69800000D03*
X233250000Y-70700000D03*
X234150000Y-70700000D03*
X234150000Y-69800000D03*
X234150000Y-68900000D03*
X234150000Y-68000000D03*
D39*
X230650000Y-62760000D03*
X236750000Y-62760000D03*
%TD*%
D40*
%TO.C,BZ1*%
X223550000Y-82050000D03*
X227550000Y-82050000D03*
%TD*%
D12*
%TO.C,R11*%
X208560000Y-68175000D03*
X208560000Y-66525000D03*
%TD*%
%TO.C,R1*%
X203480000Y-68175000D03*
X203480000Y-66525000D03*
%TD*%
D25*
%TO.C,CP2*%
X249100000Y-83605000D03*
X247200000Y-83605000D03*
%TD*%
D18*
%TO.C,SW2*%
X232850000Y-91250000D03*
X239350000Y-91250000D03*
X232850000Y-95750000D03*
X239350000Y-95750000D03*
%TD*%
D10*
%TO.C,IR1*%
X135970000Y-129200000D03*
D11*
X138510000Y-129200000D03*
X141050000Y-129200000D03*
%TD*%
D10*
%TO.C,J12*%
X218930000Y-90930000D03*
D11*
X218930000Y-93470000D03*
X218930000Y-96010000D03*
%TD*%
D10*
%TO.C,J10*%
X129600000Y-101690000D03*
D11*
X129600000Y-99150000D03*
X129600000Y-96610000D03*
X129600000Y-94070000D03*
X129600000Y-91530000D03*
%TD*%
D10*
%TO.C,J11*%
X202710000Y-122225000D03*
D11*
X202710000Y-124765000D03*
%TD*%
D10*
%TO.C,IR2*%
X140320000Y-64230000D03*
D11*
X137780000Y-64230000D03*
X135240000Y-64230000D03*
%TD*%
D10*
%TO.C,J4*%
X183120000Y-125165000D03*
D11*
X185660000Y-125165000D03*
X188200000Y-125165000D03*
X190740000Y-125165000D03*
X193280000Y-125165000D03*
X195820000Y-125165000D03*
%TD*%
D10*
%TO.C,J13*%
X202700000Y-90950000D03*
D11*
X202700000Y-93490000D03*
X202700000Y-96030000D03*
X202700000Y-98570000D03*
X202700000Y-101110000D03*
%TD*%
D10*
%TO.C,J2*%
X160280000Y-125155000D03*
D11*
X162820000Y-125155000D03*
X165360000Y-125155000D03*
X167900000Y-125155000D03*
X170440000Y-125155000D03*
X172980000Y-125155000D03*
X175520000Y-125155000D03*
X178060000Y-125155000D03*
%TD*%
D10*
%TO.C,J3*%
X195820000Y-76905000D03*
D11*
X193280000Y-76905000D03*
X190740000Y-76905000D03*
X188200000Y-76905000D03*
X185660000Y-76905000D03*
X183120000Y-76905000D03*
X180580000Y-76905000D03*
X178040000Y-76905000D03*
%TD*%
D10*
%TO.C,J9*%
X233590000Y-127530000D03*
D11*
X236130000Y-127530000D03*
X238670000Y-127530000D03*
%TD*%
D10*
%TO.C,J1*%
X173970000Y-76905000D03*
D11*
X171430000Y-76905000D03*
X168890000Y-76905000D03*
X166350000Y-76905000D03*
X163810000Y-76905000D03*
X161270000Y-76905000D03*
X158730000Y-76905000D03*
X156190000Y-76905000D03*
X153650000Y-76905000D03*
X151110000Y-76905000D03*
%TD*%
M02*
