%TF.GenerationSoftware,KiCad,Pcbnew,9.0.6*%
%TF.CreationDate,2025-12-26T21:20:51+11:00*%
%TF.ProjectId,Fipper Zero,46697070-6572-4205-9a65-726f2e6b6963,rev?*%
%TF.SameCoordinates,Original*%
%TF.FileFunction,Soldermask,Bot*%
%TF.FilePolarity,Negative*%
%FSLAX46Y46*%
G04 Gerber Fmt 4.6, Leading zero omitted, Abs format (unit mm)*
G04 Created by KiCad (PCBNEW 9.0.6) date 2025-12-26 21:20:51*
%MOMM*%
%LPD*%
G01*
G04 APERTURE LIST*
%ADD10R,1.700000X1.700000*%
%ADD11C,1.700000*%
%ADD12C,2.000000*%
%ADD13O,1.700000X1.700000*%
%ADD14C,0.650000*%
%ADD15O,1.000000X2.100000*%
%ADD16O,1.000000X1.600000*%
%ADD17C,1.800000*%
G04 APERTURE END LIST*
D10*
%TO.C,J7*%
X146350000Y-104700000D03*
D11*
X143810000Y-104700000D03*
X141270000Y-104700000D03*
X138730000Y-104700000D03*
X136190000Y-104700000D03*
X133650000Y-104700000D03*
%TD*%
D12*
%TO.C,SW4*%
X241250000Y-99750000D03*
X247750000Y-99750000D03*
X241250000Y-104250000D03*
X247750000Y-104250000D03*
%TD*%
%TO.C,SW5*%
X232850000Y-108250000D03*
X239350000Y-108250000D03*
X232850000Y-112750000D03*
X239350000Y-112750000D03*
%TD*%
D10*
%TO.C,J5*%
X136220000Y-89040000D03*
D11*
X136220000Y-86500000D03*
X138760000Y-89040000D03*
X138760000Y-86500000D03*
X141300000Y-89040000D03*
X141300000Y-86500000D03*
X143840000Y-89040000D03*
X143840000Y-86500000D03*
%TD*%
D12*
%TO.C,SW1*%
X243350000Y-122250000D03*
X243350000Y-115750000D03*
X247850000Y-122250000D03*
X247850000Y-115750000D03*
%TD*%
%TO.C,SW3*%
X224250000Y-99750000D03*
X230750000Y-99750000D03*
X224250000Y-104250000D03*
X230750000Y-104250000D03*
%TD*%
D10*
%TO.C,J8*%
X152760000Y-128200000D03*
D11*
X155300000Y-128200000D03*
%TD*%
D12*
%TO.C,SW7*%
X233750000Y-105250000D03*
X233750000Y-98750000D03*
X238250000Y-105250000D03*
X238250000Y-98750000D03*
%TD*%
D10*
%TO.C,J15*%
X218715000Y-63830000D03*
D13*
X216175000Y-63830000D03*
X213635000Y-63830000D03*
X211095000Y-63830000D03*
X208555000Y-63830000D03*
X206015000Y-63830000D03*
X203475000Y-63830000D03*
X200935000Y-63830000D03*
D11*
X183155000Y-63830000D03*
D13*
X180615000Y-63830000D03*
X178075000Y-63830000D03*
X175535000Y-63830000D03*
X172995000Y-63830000D03*
X170455000Y-63830000D03*
X167915000Y-63830000D03*
X165375000Y-63830000D03*
X162835000Y-63830000D03*
X160295000Y-63830000D03*
%TD*%
D10*
%TO.C,J6*%
X151660000Y-63800000D03*
D11*
X154200000Y-63800000D03*
%TD*%
D14*
%TO.C,USB1*%
X249540000Y-68780000D03*
X243760000Y-68780000D03*
D15*
X250970000Y-69310000D03*
D16*
X250970000Y-65130000D03*
D15*
X242330000Y-69310000D03*
D16*
X242330000Y-65130000D03*
%TD*%
D12*
%TO.C,SW6*%
X224250000Y-122300000D03*
X224250000Y-115800000D03*
X228750000Y-122300000D03*
X228750000Y-115800000D03*
%TD*%
D10*
%TO.C,J14*%
X173815000Y-80600000D03*
D11*
X176355000Y-80600000D03*
X178895000Y-80600000D03*
X181435000Y-80600000D03*
X183975000Y-80600000D03*
X186515000Y-80600000D03*
X189055000Y-80600000D03*
X191595000Y-80600000D03*
X194135000Y-80600000D03*
X196675000Y-80600000D03*
X199215000Y-80600000D03*
X201755000Y-80600000D03*
X204295000Y-80600000D03*
%TD*%
D17*
%TO.C,BZ1*%
X223550000Y-82050000D03*
X227550000Y-82050000D03*
%TD*%
D12*
%TO.C,SW2*%
X232850000Y-91250000D03*
X239350000Y-91250000D03*
X232850000Y-95750000D03*
X239350000Y-95750000D03*
%TD*%
D10*
%TO.C,IR1*%
X135970000Y-129200000D03*
D11*
X138510000Y-129200000D03*
X141050000Y-129200000D03*
%TD*%
D10*
%TO.C,J12*%
X218930000Y-90930000D03*
D11*
X218930000Y-93470000D03*
X218930000Y-96010000D03*
%TD*%
D10*
%TO.C,J10*%
X129600000Y-101690000D03*
D11*
X129600000Y-99150000D03*
X129600000Y-96610000D03*
X129600000Y-94070000D03*
X129600000Y-91530000D03*
%TD*%
D10*
%TO.C,J11*%
X202710000Y-122225000D03*
D11*
X202710000Y-124765000D03*
%TD*%
D10*
%TO.C,IR2*%
X140320000Y-64230000D03*
D11*
X137780000Y-64230000D03*
X135240000Y-64230000D03*
%TD*%
D10*
%TO.C,J4*%
X183120000Y-125165000D03*
D11*
X185660000Y-125165000D03*
X188200000Y-125165000D03*
X190740000Y-125165000D03*
X193280000Y-125165000D03*
X195820000Y-125165000D03*
%TD*%
D10*
%TO.C,J13*%
X202700000Y-90950000D03*
D11*
X202700000Y-93490000D03*
X202700000Y-96030000D03*
X202700000Y-98570000D03*
X202700000Y-101110000D03*
%TD*%
D10*
%TO.C,J2*%
X160280000Y-125155000D03*
D11*
X162820000Y-125155000D03*
X165360000Y-125155000D03*
X167900000Y-125155000D03*
X170440000Y-125155000D03*
X172980000Y-125155000D03*
X175520000Y-125155000D03*
X178060000Y-125155000D03*
%TD*%
D10*
%TO.C,J3*%
X195820000Y-76905000D03*
D11*
X193280000Y-76905000D03*
X190740000Y-76905000D03*
X188200000Y-76905000D03*
X185660000Y-76905000D03*
X183120000Y-76905000D03*
X180580000Y-76905000D03*
X178040000Y-76905000D03*
%TD*%
D10*
%TO.C,J9*%
X233590000Y-127530000D03*
D11*
X236130000Y-127530000D03*
X238670000Y-127530000D03*
%TD*%
D10*
%TO.C,J1*%
X173970000Y-76905000D03*
D11*
X171430000Y-76905000D03*
X168890000Y-76905000D03*
X166350000Y-76905000D03*
X163810000Y-76905000D03*
X161270000Y-76905000D03*
X158730000Y-76905000D03*
X156190000Y-76905000D03*
X153650000Y-76905000D03*
X151110000Y-76905000D03*
%TD*%
M02*
